Coordinates
version=1
nRows=4
nColumns=107
inDegrees=yes

Units are S.I. units (second, meters, Newtons, ...)
If the header above contains a line with 'inDegrees', this indicates whether rotational values are in degrees (yes) or radians (no).

endheader
time	sternoclavicular_r2	sternoclavicular_r3	unrotscap_r3	unrotscap_r2	acromioclavicular_r2	acromioclavicular_r3	acromioclavicular_r1	unrothum_r1	unrothum_r3	unrothum_r2	elv_angle	shoulder_elv	shoulder1_r2	shoulder_rot	elbow_flexion	pro_sup	deviation	flexion	proximal_distal_r1	proximal_distal_r3	cmc_flexion	cmc_abduction	mp_flexion	ip_flexion	mcp2_flexion	mcp2_abduction	pm2_flexion	md2_flexion	mcp3_flexion	mcp3_abduction	pm3_flexion	md3_flexion	mcp4_flexion	mcp4_abduction	pm4_flexion	md4_flexion	mcp5_flexion	mcp5_abduction	pm5_flexion	md5_flexion	bicpt_tx	bicpt_ty	bicpt_tz	bicpt2_tx	bicpt2_ty	bicpt2_tz	ptpt_tx	ptpt_ty	ptpt_tz	FCUpt_tx	FCUpt_ty	FCUpt_tz	EDCpt_tx	EDCpt_ty	EDCpt_tz	APLpt_tx	APLpt_ty	APLpt_tz	FPLpt_tx	FPLpt_ty	FPLpt_tz	FPLpt2_tx	FPLpt2_ty	FPLpt2_tz	PEC1pt2_tx	PEC1pt2_ty	PEC1pt2_tz	PEC1pt3_tx	PEC1pt3_ty	PEC1pt3_tz	PEC2pt2_tx	PEC2pt2_ty	PEC2pt2_tz	PEC2pt3_tx	PEC2pt3_ty	PEC2pt3_tz	PEC3pt2_tx	PEC3pt2_ty	PEC3pt2_tz	PEC3pt3_tx	PEC3pt3_ty	PEC3pt3_tz	DELT2pt2a_tx	DELT2pt2a_ty	DELT2pt2a_tz	DELT2pt2_tx	DELT2pt2_ty	DELT2pt2_tz	LAT1pt2_tx	LAT1pt2_ty	LAT1pt2_tz	LAT1pt3_tx	LAT1pt3_ty	LAT1pt3_tz	LAT2pt2_tx	LAT2pt2_ty	LAT2pt2_tz	LAT2pt3_tx	LAT2pt3_ty	LAT2pt3_tz	LAT3pt2_tx	LAT3pt2_ty	LAT3pt2_tz	LAT3pt3_tx	LAT3pt3_ty	LAT3pt3_tz
      1.63333333	     -0.32053434	      0.13576322	     -0.13576322	      0.32053434	     -0.06490168	      0.52451258	      0.23576480	     -0.23576480	     -0.52451258	      0.06490168	     99.29588639	     75.88935500	     -1.73304015	    -26.08452181	     30.80998241	     65.04702076	      0.28841990	     -0.14600263	      0.32333810	     -0.07300132	     21.23816661	    -16.34248230	    -20.86337465	     -4.11289567	     16.13262362	     10.80775028	     42.08487459	      9.27514647	     21.99118175	      1.10662020	     23.78812700	     20.00578311	     28.81065035	     -4.24666699	     17.16037786	     25.09191511	     43.52255536	    -13.90284148	      4.56564425	      5.26761470	      0.00091910	     -0.03113129	     -0.00486880	      0.01590359	     -0.01856968	     -0.00435642	      0.00274376	     -0.06800779	     -0.00528989	      0.01039875	     -0.18288496	     -0.00032800	     -0.00780562	      0.00249594	     -0.00020339	      0.00013153	      0.00005261	      0.00026306	      0.00016836	      0.00050507	      0.00028410	      0.00000880	     -0.00028037	     -0.00033644	      0.00248749	      0.00872728	      0.00607115	     -0.00813703	      0.01964693	     -0.01863507	      0.00248749	      0.00872728	      0.00607115	      0.00054809	      0.01821346	     -0.00957050	      0.00393742	      0.00485313	      0.01594186	      0.00000000	      0.00770174	      0.00000000	     -0.00712517	     -0.03292758	     -0.00635000	      0.01703982	     -0.00062575	     -0.00568907	     -0.00088538	      0.01484060	     -0.00607115	      0.00244533	      0.02141768	     -0.01770753	     -0.00594467	      0.01285904	     -0.00543874	     -0.01239527	      0.02715155	     -0.03039793	     -0.02327276	      0.01437683	     -0.00729382	     -0.01543085	      0.03136763	     -0.03798687
      1.66666667	     -0.32231313	      0.13651663	     -0.13651663	      0.32231313	     -0.06526185	      0.52742333	      0.23707316	     -0.23707316	     -0.52742333	      0.06526185	     98.87580478	     76.31049769	     -1.72570834	    -24.03213821	     30.75279945	     63.42295802	      0.30801130	     -0.12351674	      0.34036275	     -0.06175837	     21.62927692	    -16.65920554	    -21.41675084	     -3.99351283	     16.51202304	     10.72019166	     41.20615920	      9.25522195	     22.70694176	      1.10441904	     23.11444563	     19.79379046	     29.22078699	     -4.34874991	     17.27089852	     24.43342209	     43.49498765	    -13.90338587	      4.80342738	      5.26432669	      0.00091721	     -0.03112474	     -0.00486774	      0.01599060	     -0.01855415	     -0.00458497	      0.00286376	     -0.06793020	     -0.00515906	      0.01022310	     -0.18292992	     -0.00034611	     -0.00761074	      0.00241773	     -0.00017040	      0.00011360	      0.00004544	      0.00022720	      0.00014541	      0.00043623	      0.00024538	      0.00000786	     -0.00028084	     -0.00033701	      0.00250129	      0.00877571	      0.00610484	     -0.00818219	      0.01975596	     -0.01873848	      0.00250129	      0.00877571	      0.00610484	      0.00055113	      0.01831453	     -0.00962361	      0.00395337	      0.00488006	      0.01598090	      0.00000000	      0.00778806	      0.00000000	     -0.00716471	     -0.03311031	     -0.00642166	      0.01599443	     -0.00055888	     -0.00482219	     -0.00089029	      0.01492295	     -0.00610484	      0.00245890	      0.02153654	     -0.01780580	     -0.00597766	      0.01293040	     -0.00546892	     -0.01246406	      0.02730222	     -0.03056662	     -0.02340191	      0.01445661	     -0.00733429	     -0.01551648	      0.03154170	     -0.03819768
      1.70000000	     -0.32237523	      0.13654293	     -0.13654293	      0.32237523	     -0.06527443	      0.52752495	      0.23711883	     -0.23711883	     -0.52752495	      0.06527443	     98.89334201	     76.32520076	     -1.72601443	    -24.03069548	     30.76997691	     63.42224656	      0.30802663	     -0.12356087	      0.34037523	     -0.06178044	     21.62931668	    -16.65981519	    -21.41647169	     -3.99333145	     16.50951584	     10.72026821	     41.20583578	      9.25508073	     22.70727511	      1.10490392	     23.11501209	     19.79401855	     29.22147173	     -4.34827537	     17.27155539	     24.43353838	     43.49367828	    -13.90334641	      4.80322561	      5.26432433	      0.00091778	     -0.03112671	     -0.00486806	      0.01599063	     -0.01855882	     -0.00458507	      0.00286381	     -0.06793017	     -0.00515900	      0.01022302	     -0.18292994	     -0.00034612	     -0.00761065	      0.00241769	     -0.00017039	      0.00011363	      0.00004545	      0.00022727	      0.00014545	      0.00043636	      0.00024545	      0.00000786	     -0.00028083	     -0.00033700	      0.00250177	      0.00877741	      0.00610602	     -0.00818376	      0.01975976	     -0.01874209	      0.00250177	      0.00877741	      0.00610602	      0.00055124	      0.01831806	     -0.00962546	      0.00395393	      0.00488100	      0.01598225	      0.00000000	      0.00779108	      0.00000000	     -0.00716609	     -0.03311668	     -0.00642417	      0.01599353	     -0.00055884	     -0.00482176	     -0.00089046	      0.01492583	     -0.00610602	      0.00245937	      0.02154069	     -0.01780923	     -0.00597881	      0.01293289	     -0.00546998	     -0.01246646	      0.02730748	     -0.03057251	     -0.02340641	      0.01445940	     -0.00733571	     -0.01551947	      0.03154778	     -0.03820504
      1.73333333	     -0.32158342	      0.13620756	     -0.13620756	      0.32158342	     -0.06511410	      0.52622926	      0.23653643	     -0.23653643	     -0.52622926	      0.06511410	     99.03610213	     76.13773372	     -1.72850606	    -24.81873089	     30.80318982	     63.84264998	      0.29481191	     -0.15783257	      0.32896150	     -0.07891629	     21.57668670	    -17.22427139	    -21.17676821	     -3.55448523	     16.15432326	     10.77889019	     41.05344413	      9.76440351	     22.64351062	      1.35438095	     24.11431441	     20.45761622	     29.45007726	     -4.18108599	     17.89897250	     24.06759907	     43.06471444	    -13.88412274	      5.60467551	      5.28233190	      0.00091887	     -0.03113052	     -0.00486867	      0.01596869	     -0.01856784	     -0.00452626	      0.00283275	     -0.06795025	     -0.00519287	      0.01026841	     -0.18291837	     -0.00034162	     -0.00766110	      0.00243786	     -0.00017879	      0.00014063	      0.00005625	      0.00028126	      0.00018001	      0.00054002	      0.00030376	      0.00000799	     -0.00028078	     -0.00033693	      0.00249563	      0.00875585	      0.00609102	     -0.00816366	      0.01971123	     -0.01869606	      0.00249563	      0.00875585	      0.00609102	      0.00054988	      0.01827307	     -0.00960182	      0.00394683	      0.00486902	      0.01596493	      0.00000000	      0.00775259	      0.00000000	     -0.00714849	     -0.03303534	     -0.00639222	      0.01640164	     -0.00058434	     -0.00514757	     -0.00088827	      0.01488917	     -0.00609102	      0.00245333	      0.02148778	     -0.01776549	     -0.00596413	      0.01290113	     -0.00545654	     -0.01243584	      0.02724041	     -0.03049742	     -0.02334892	      0.01442388	     -0.00731769	     -0.01548135	      0.03147029	     -0.03811120
